<svg xmlns="http://www.w3.org/2000/svg" width="1761" height="1069" viewBox="0 0 1761 1069" fill="none">
<path d="M526.776 507.468L323.33 212.823C320.906 209.312 321.337 204.571 324.354 201.554L520.32 5.58808C521.977 3.93096 524.224 3 526.568 3H1036.4C1044.32 3 1048.24 12.6222 1042.57 18.1578L540.221 508.769C536.304 512.595 529.887 511.974 526.776 507.468Z" fill="#FF0000"/>
<path d="M5.34545 518.256L257.557 273.05C261.498 269.218 268.023 269.939 271.107 274.489L798.266 1052.11C802.244 1057.98 798.097 1066 791.008 1066H372.971C370.043 1066 367.231 1064.51 365.587 1062.08L4.20064 529.642C1.79331 526.095 2.27198 521.244 5.34545 518.256Z" fill="#FF0000"/>
<path d="M913.074 1062.11L731.065 792.55C727.102 786.681 731.307 778.769 738.388 778.769H1239.88C1241.41 778.769 1242.93 778.363 1244.26 777.603C1292.21 750.165 1314.54 730.307 1335.18 681.332C1335.39 680.832 1335.56 680.316 1335.67 679.786L1389.33 430.987C1389.46 430.375 1389.51 429.852 1389.5 429.226C1388.59 363.164 1291.15 287.776 1256.94 287.776H905.457C897.53 287.776 893.667 278.145 899.343 272.612L1173.35 5.50883C1175 3.90026 1177.22 3 1179.52 3H1526.06C1526.68 3 1527.29 3.06429 1527.9 3.19285C1655.13 30.4121 1757.76 116.359 1757.76 297.596C1757.76 477.145 1613.87 879.714 1610.52 889.076C1610.41 889.37 1610.39 889.39 1610.25 889.671C1557.88 997.703 1511.65 1033.89 1407.97 1065.61C1407.14 1065.87 1406.25 1066 1405.38 1066H920.398C917.462 1066 914.717 1064.54 913.074 1062.11Z" fill="#FF0000"/>
<path d="M526.776 507.468L323.33 212.823C320.906 209.312 321.337 204.571 324.354 201.554L520.32 5.58808C521.977 3.93096 524.224 3 526.568 3H1036.4C1044.32 3 1048.24 12.6222 1042.57 18.1578L540.221 508.769C536.304 512.595 529.887 511.974 526.776 507.468Z" stroke="#FF0000" stroke-width="4.90993"/>
<path d="M5.34545 518.256L257.557 273.05C261.498 269.218 268.023 269.939 271.107 274.489L798.266 1052.11C802.244 1057.98 798.097 1066 791.008 1066H372.971C370.043 1066 367.231 1064.51 365.587 1062.08L4.20064 529.642C1.79331 526.095 2.27198 521.244 5.34545 518.256Z" stroke="#FF0000" stroke-width="4.90993"/>
<path d="M913.074 1062.11L731.065 792.55C727.102 786.681 731.307 778.769 738.388 778.769H1239.88C1241.41 778.769 1242.93 778.363 1244.26 777.603C1292.21 750.165 1314.54 730.307 1335.18 681.332C1335.39 680.832 1335.56 680.316 1335.67 679.786L1389.33 430.987C1389.46 430.375 1389.51 429.852 1389.5 429.226C1388.59 363.164 1291.15 287.776 1256.94 287.776H905.457C897.53 287.776 893.667 278.145 899.343 272.612L1173.35 5.50883C1175 3.90026 1177.22 3 1179.52 3H1526.06C1526.68 3 1527.29 3.06429 1527.9 3.19285C1655.13 30.4121 1757.76 116.359 1757.76 297.596C1757.76 477.145 1613.87 879.714 1610.52 889.076C1610.41 889.37 1610.39 889.39 1610.25 889.671C1557.88 997.703 1511.65 1033.89 1407.97 1065.61C1407.14 1065.87 1406.25 1066 1405.38 1066H920.398C917.462 1066 914.717 1064.54 913.074 1062.11Z" stroke="#FF0000" stroke-width="4.90993"/>
</svg>