<svg width="2151" height="734" viewBox="0 0 2151 734" fill="none" xmlns="http://www.w3.org/2000/svg">
<path d="M1000.6 156.359L935.924 62.6977L997.622 1H1159.67L1000.6 156.359Z" fill="white"/>
<path d="M839.289 158.589L919.57 80.538L1083.85 322.869H950.791L839.289 158.589Z" fill="white"/>
<path d="M1116.56 322.869L1057.83 235.897H1215.42C1230.45 227.361 1237.3 221.372 1243.67 206.163L1260.02 130.342C1260.02 110.272 1230.29 87.2281 1219.88 87.2281H1106.89L1195.35 1H1301.65C1340.3 9.17681 1371.52 35.1939 1371.52 90.2015C1371.52 145.209 1326.92 269.348 1326.92 269.348C1310.98 302.294 1296.93 313.223 1265.23 322.869H1116.56Z" fill="white"/>
<path d="M1000.6 156.359L935.924 62.6977L997.622 1H1159.67L1000.6 156.359Z" stroke="white" stroke-width="1.48669"/>
<path d="M839.289 158.589L919.57 80.538L1083.85 322.869H950.791L839.289 158.589Z" stroke="white" stroke-width="1.48669"/>
<path d="M1116.56 322.869L1057.83 235.897H1215.42C1230.45 227.361 1237.3 221.372 1243.67 206.163L1260.02 130.342C1260.02 110.272 1230.29 87.2281 1219.88 87.2281H1106.89L1195.35 1H1301.65C1340.3 9.17681 1371.52 35.1939 1371.52 90.2015C1371.52 145.209 1326.92 269.348 1326.92 269.348C1310.98 302.294 1296.93 313.223 1265.23 322.869H1116.56Z" stroke="white" stroke-width="1.48669"/>
<path d="M815.528 391.087L919.52 520.72L1089.2 390.966L1089.39 390.82H1229.31L1229.09 391.708L1161.14 664.938L1161 665.481H1033.64L1033.86 664.589L1062.68 551.417L912.679 665.335L912.121 665.759L911.686 665.209L792.399 514.681L751.287 664.955L751.2 665.269L750.906 665.411L610.714 732.645L609.346 733.302L609.711 731.829L694.112 391.363L694.246 390.82H815.313L815.528 391.087ZM1567.39 391.306L1659.66 664.537L1659.98 665.481H1531.86L1531.7 664.988L1521.13 632.579H1367.5L1341.97 665.207L1341.75 665.481H1200.4L1201.38 664.308L1428.83 391.078L1429.05 390.82H1567.23L1567.39 391.306ZM1886.42 391.706L1819.18 664.937L1819.05 665.481H1692.4L1692.62 664.596L1759.14 391.366L1759.27 390.82H1886.63L1886.42 391.706ZM1942.1 454.788L2086.58 664.36L2087.36 665.481H1963.31L1963.1 665.173L1867.97 527.842L1867.62 527.349L1868.05 526.926L1941.01 454.685L1941.62 454.083L1942.1 454.788ZM248.476 384.204C310.501 383.667 377.967 383.665 399.474 385.816C421.095 387.978 437.92 396.998 448.521 410.951C459.119 424.901 463.433 443.702 460.191 465.313L460.187 465.345L460.18 465.375L423.701 615.582L423.683 615.656L423.649 615.724C417.884 627.617 412.403 636.154 404.762 642.865C397.121 649.575 387.375 654.413 373.157 659.009L373.05 659.043H0.0859375L0.305664 658.156L43.9365 482.202L44.0713 481.658H170.707L170.498 482.539L147.104 581.08H284.826C294.631 577.303 301.351 573.856 306.031 569.167C310.706 564.481 313.408 558.49 315.012 549.483L315.013 549.479L325.715 490.968C323.981 482.779 321.668 477.375 317.944 473.334C314.213 469.285 308.996 466.527 301.286 463.777H50.5654L52.0332 462.518L57.0195 458.244L129.242 386.022L129.445 385.818L129.734 385.813L129.747 386.528C129.734 385.862 129.735 385.816 129.736 385.813C129.738 385.813 129.741 385.813 129.744 385.813C129.751 385.813 129.762 385.812 129.775 385.812C129.803 385.811 129.844 385.811 129.898 385.81C130.008 385.808 130.171 385.804 130.386 385.8C130.816 385.792 131.456 385.781 132.291 385.766C133.962 385.736 136.42 385.692 139.562 385.637C145.846 385.528 154.871 385.377 165.835 385.209C187.763 384.874 217.449 384.472 248.476 384.204ZM626.12 482.542L583.205 658.498L583.071 659.043H452.118L452.355 658.146L498.848 482.191L498.988 481.658H626.336L626.12 482.542ZM1425.81 559.621H1490.9L1472.3 493.101L1425.81 559.621ZM2149.44 392.042L2012.83 527.942L2012.23 528.537L2011.74 527.85L1953.09 445.595L1952.74 445.109L1953.16 444.681L2005.37 391.036L2005.58 390.82H2150.67L2149.44 392.042ZM649.007 391.713L631.125 461.094L630.986 461.63H504.348L504.566 460.744L521.733 391.363L521.867 390.82H649.237L649.007 391.713Z" fill="#FF0000"/>
</svg>
