<svg xmlns="http://www.w3.org/2000/svg" style="display: none;">
  <!-- globals -->
  <symbol id="icon-home" viewBox="0 0 24 24">
    <path d="M10 20v-6h4v6h5v-8h3L12 3 2 12h3v8z"/>
  </symbol>

  <symbol id="icon-login" viewBox="0 0 20 20">
     <path
        clipRule="evenodd"
        d="M3 3a1 1 0 00-1 1v12a1 1 0 102 0V4a1 1 0 00-1-1zm10.293 9.293a1 1 0 001.414 1.414l3-3a1 1 0 000-1.414l-3-3a1 1 0 10-1.414 1.414L14.586 9H7a1 1 0 100 2h7.586l-1.293 1.293z"
        fillRule="evenodd"
      ></path>
  </symbol>

  <symbol id="icon-show-password" viewBox="0 0 16 16">
    <path d="M8 2c1.981 0 3.671.992 4.933 2.078c1.27 1.091 2.187 2.345 2.637 3.023a1.62 1.62 0 0 1 0 1.798c-.45.678-1.367 1.932-2.637 3.023C11.67 13.008 9.981 14 8 14s-3.671-.992-4.933-2.078C1.797 10.83.88 9.576.43 8.898a1.62 1.62 0 0 1 0-1.798c.45-.677 1.367-1.931 2.637-3.022C4.33 2.992 6.019 2 8 2M1.679 7.932a.12.12 0 0 0 0 .136c.411.622 1.241 1.75 2.366 2.717C5.176 11.758 6.527 12.5 8 12.5s2.825-.742 3.955-1.715c1.124-.967 1.954-2.096 2.366-2.717a.12.12 0 0 0 0-.136c-.412-.621-1.242-1.75-2.366-2.717C10.824 4.242 9.473 3.5 8 3.5s-2.825.742-3.955 1.715c-1.124.967-1.954 2.096-2.366 2.717M8 10a2 2 0 1 1-.001-3.999A2 2 0 0 1 8 10"/>
  </symbol>

  <symbol id="icon-hide-password" viewBox="0 0 16 16">
    <path d="M.143 2.31a.75.75 0 0 1 1.047-.167l14.5 10.5a.75.75 0 1 1-.88 1.214l-2.248-1.628C11.346 13.19 9.792 14 8 14c-1.981 0-3.67-.992-4.933-2.078C1.797 10.832.88 9.577.43 8.9a1.62 1.62 0 0 1 0-1.797c.353-.533.995-1.42 1.868-2.305L.31 3.357A.75.75 0 0 1 .143 2.31m1.536 5.622A.12.12 0 0 0 1.657 8q-.001.033.022.068c.412.621 1.242 1.75 2.366 2.717C5.175 11.758 6.527 12.5 8 12.5c1.195 0 2.31-.488 3.29-1.191L9.063 9.695A2 2 0 0 1 6.058 7.52L3.529 5.688a14.2 14.2 0 0 0-1.85 2.244M8 3.5c-.516 0-1.017.09-1.499.251a.75.75 0 1 1-.473-1.423A6.2 6.2 0 0 1 8 2c1.981 0 3.67.992 4.933 2.078c1.27 1.091 2.187 2.345 2.637 3.023a1.62 1.62 0 0 1 0 1.798c-.11.166-.248.365-.41.587a.75.75 0 1 1-1.21-.887c.148-.201.272-.382.371-.53a.12.12 0 0 0 0-.137c-.412-.621-1.242-1.75-2.366-2.717C10.825 4.242 9.473 3.5 8 3.5"/>
  </symbol>

  <symbol id="icon-user" viewBox="0 0 24 24">
    <path d="M12 12c2.7 0 5-2.3 5-5s-2.3-5-5-5-5 2.3-5 5 2.3 5 5 5zm0 2c-3.3 0-10 1.7-10 5v3h20v-3c0-3.3-6.7-5-10-5z"/>
  </symbol>

  <symbol id="icon-filter" stroke="currentColor" fill="currentColor" stroke-width="1" viewBox="0 0 24 24">
    <path d="M14.037 20.937a1.015 1.015 0 0 1-.518-.145l-3.334-2a2.551 2.551 0 0 1-1.233-2.176V12.091a1.526 1.526 0 0 0-.284-.891L4.013 4.658a1.01 1.01 0 0 1 .822-1.6h14.33a1.009 1.009 0 0 1 .822 1.6L15.332 11.2a1.527 1.527 0 0 0-.285.891v7.834a1.013 1.013 0 0 1-1.01 1.012ZM4.835 4.063L9.482 10.62a2.515 2.515 0 0 1 .47 1.471v4.524a1.543 1.543 0 0 0 .747 1.318l3.334 2 .014-7.843a2.516 2.516 0 0 1 .471-1.471l4.654-6.542Z"></path>
  </symbol>

  <symbol id="icon-dark" width="24" height="24" viewBox="0 0 24 24" fill="currentColor" stroke="currentColor" stroke-width="2" stroke-linecap="round" stroke-linejoin="round">
    <path d="M20.985 12.486a9 9 0 1 1-9.473-9.472c.405-.022.617.46.402.803a6 6 0 0 0 8.268 8.268c.344-.215.825-.004.803.401"/>
  </symbol>

  <symbol id="icon-light" width="24" height="24" viewBox="0 0 24 24" fill="currentColor" stroke="currentColor" stroke-width="2" stroke-linecap="round" stroke-linejoin="round">
    <circle cx="12" cy="12" r="4"/><path d="M12 2v2"/><path d="M12 20v2"/><path d="m4.93 4.93 1.41 1.41"/><path d="m17.66 17.66 1.41 1.41"/><path d="M2 12h2"/><path d="M20 12h2"/><path d="m6.34 17.66-1.41 1.41"/><path d="m19.07 4.93-1.41 1.41"/>
  </symbol>

  <symbol id="arrow-left" viewBox="0 0 24 24">
    <path fill="currentColor" d="m4.836 12l6.207 6.207l1.414-1.414L7.664 12l4.793-4.793l-1.414-1.414zm5.65 0l6.207 6.207l1.414-1.414L13.314 12l4.793-4.793l-1.414-1.414z"/>
  </symbol>

  <symbol id="arrow-right" viewBox="0 0 24 24">
    <path fill="currentColor" d="m19.164 12l-6.207-6.207l-1.414 1.414L16.336 12l-4.793 4.793l1.414 1.414zm-5.65 0L7.307 5.793L5.893 7.207L10.686 12l-4.793 4.793l1.414 1.414z"/>
  </symbol>

  <symbol id="icon-menu" viewBox="0 0 24 24" stroke-width="1">
    <path fill="currentColor" fill-rule="evenodd" d="M2 8a1 1 0 0 1 1-1h10.308a1 1 0 1 1 0 2H3a1 1 0 0 1-1-1Zm0-4a1 1 0 0 1 1-1h14a1 1 0 1 1 0 2H3a1 1 0 0 1-1-1Zm0 8a1 1 0 0 1 1-1h14a1 1 0 1 1 0 2H3a1 1 0 0 1-1-1Zm0 4a1 1 0 0 1 1-1h10.308a1 1 0 1 1 0 2H3a1 1 0 0 1-1-1Z" clip-rule="evenodd"/>
  </symbol>

  <symbol id="icon-back" viewBox="0 0 24 24">
    <path d="m4 10l-.707.707L2.586 10l.707-.707zm17 8a1 1 0 1 1-2 0zM8.293 15.707l-5-5l1.414-1.414l5 5zm-5-6.414l5-5l1.414 1.414l-5 5zM4 9h10v2H4zm17 7v2h-2v-2zm-7-7a7 7 0 0 1 7 7h-2a5 5 0 0 0-5-5z"/>
  </symbol>


  <!-- mdi:cards -->
  <symbol id="icon-add-card" viewBox="0 0 24 24">
    <path d="M7 12C7 9.6 8.1 7.5 9.7 6H2L3.5 1.5H14.5L15.3 4C15.9 4 16.5 4.1 17 4.3L15.9 1C15.7 0.4 15.1 0 14.5 0H3.5C2.8 0 2.3 0.4 2.1 1L0 7V15C0 15.5 0.5 16 1 16H2C2.5 16 3 15.5 3 15V14H7.3C7.1 13.4 7 12.7 7 12ZM3.5 11C2.7 11 2 10.3 2 9.5C2 8.7 2.7 8 3.5 8C4.3 8 5 8.7 5 9.5C5 10.3 4.3 11 3.5 11ZM22 13H20V15H18V13H16V11H18V9H20V11H22V13Z" fill="white"/>
    <path d="M13 8L11 9V11L13 10V16H15V8H13Z"/>
  </symbol>

  <symbol id="icon-add-instalation-card" viewBox="0 0 24 24">
    <path fill="currentColor" d="M20.96 16.45c.01-.15.04-.3.04-.45v.5zM11 16c0 .71.15 1.39.42 2H6v1c0 .55-.45 1-1 1H4c-.55 0-1-.45-1-1v-8l2.08-6c.2-.58.76-1 1.42-1h11c.66 0 1.22.42 1.42 1L21 11v5c0-2.76-2.24-5-5-5s-5 2.24-5 5m-3-2.5c0-.83-.67-1.5-1.5-1.5S5 12.67 5 13.5S5.67 15 6.5 15S8 14.33 8 13.5M19 10l-1.5-4.5h-11L5 10zm3.87 11.19l-4.11-4.11c.41-1.04.18-2.26-.68-3.11c-.9-.91-2.25-1.09-3.34-.59l1.94 1.94l-1.35 1.36l-1.99-1.95c-.54 1.09-.29 2.44.59 3.35a2.91 2.91 0 0 0 3.12.68l4.11 4.1c.18.19.45.19.63 0l1.04-1.03c.22-.18.22-.5.04-.64"/>
  </symbol>

  <symbol id="icon-search-card" viewBox="0 0 24 24">
    <path fill="currentColor" d="M9.61 16.11c0-2.08.98-3.92 2.49-5.11H5l1.5-4.5h11l1.22 3.66c.84.37 1.58.91 2.19 1.58L18.92 6c-.2-.58-.76-1-1.42-1h-11c-.66 0-1.22.42-1.42 1L3 12v8c0 .55.45 1 1 1h1c.55 0 1-.45 1-1v-1h4.29c-.43-.87-.68-1.85-.68-2.89M6.5 16c-.83 0-1.5-.67-1.5-1.5S5.67 13 6.5 13s1.5.67 1.5 1.5S7.33 16 6.5 16m14.21 4.7l-.01.01zm-4.6-9.09c2.5 0 4.5 2 4.5 4.5c0 .89-.25 1.71-.69 2.39L23 21.61L21.61 23l-3.11-3.07c-.7.43-1.5.68-2.39.68c-2.5 0-4.5-2-4.5-4.5s2-4.5 4.5-4.5m0 2a2.5 2.5 0 1 0 2.5 2.5c0-1.39-1.11-2.5-2.5-2.5"/>
  </symbol>

  <symbol id="icon-update-card" viewBox="0 0 24 24">
    <path d="M17.96 12.45C17.97 12.3 18 12.15 18 12V12.5L17.96 12.45ZM8 12C8 12.71 8.15 13.39 8.42 14H3V15C3 15.55 2.55 16 2 16H1C0.45 16 0 15.55 0 15V7L2.08 1C2.28 0.42 2.84 0 3.5 0H14.5C15.16 0 15.72 0.42 15.92 1L18 7V12C18 9.24 15.76 7 13 7C10.24 7 8 9.24 8 12ZM5 9.5C5 8.67 4.33 8 3.5 8C2.67 8 2 8.67 2 9.5C2 10.33 2.67 11 3.5 11C4.33 11 5 10.33 5 9.5ZM16 6L14.5 1.5H3.5L2 6H16Z"/>
    <path d="M19.87 17.19L15.76 13.08L13.5 11L11.7112 10.2845C11.1896 10.0785 11.1091 10.1572 11.2705 10.6762L12 12.5L14.05 14.76L18.16 18.86C18.34 19.05 18.61 19.05 18.79 18.86L19.83 17.83C20.05 17.65 20.05 17.33 19.87 17.19Z"/>  
  </symbol>

  <symbol id="icon-delete-card" viewBox="0 0 24 24">
    <path d="M17.96 12.45C17.97 12.3 18 12.15 18 12V12.5L17.96 12.45ZM8 12C8 12.71 8.15 13.39 8.42 14H3V15C3 15.55 2.55 16 2 16H1C0.45 16 0 15.55 0 15V7L2.08 1C2.28 0.42 2.84 0 3.5 0H14.5C15.16 0 15.72 0.42 15.92 1L18 7V12C18 9.24 15.76 7 13 7C10.24 7 8 9.24 8 12ZM5 9.5C5 8.67 4.33 8 3.5 8C2.67 8 2 8.67 2 9.5C2 10.33 2.67 11 3.5 11C4.33 11 5 10.33 5 9.5ZM16 6L14.5 1.5H3.5L2 6H16Z" fill="white"/>
    <path d="M13.2401 11.8285L14.6518 10.4118L16.0685 11.8234L14.6568 13.2402L16.0736 14.6519L14.6619 16.0686L13.2452 14.6569L11.8335 16.0737L10.4167 14.662L11.8284 13.2453L10.4117 11.8336L11.8233 10.4168L13.2401 11.8285Z" fill="white"/>
  </symbol>

  <!-- form -->
  <symbol id="icon-reset-form" viewBox="0 0 24 24">
    <path fill="currentColor" d="M22 12c0 5.523-4.477 10-10 10S2 17.523 2 12S6.477 2 12 2v2a8 8 0 1 0 4.5 1.385V8h-2V2h6v2H18a9.99 9.99 0 0 1 4 8"/>
  </symbol>

  <symbol id="icon-save-form" viewBox="0 0 24 24" stroke-width="0.5">
   <path fill="currentColor" d="M2 2h14.414L22 7.586V22H2zm2 2v16h2v-6h12v6h2V8.414L15.586 4H13v4H6V4zm4 0v2h3V4zm8 16v-4H8v4z"/>
  </symbol>

  <symbol id="icon-search-form"  viewBox="0 0 24 24">
    <path fill="currentColor" d="M9.5 16q-2.725 0-4.612-1.888T3 9.5t1.888-4.612T9.5 3t4.613 1.888T16 9.5q0 1.1-.35 2.075T14.7 13.3l5.6 5.6q.275.275.275.7t-.275.7t-.7.275t-.7-.275l-5.6-5.6q-.75.6-1.725.95T9.5 16m0-2q1.875 0 3.188-1.312T14 9.5t-1.312-3.187T9.5 5T6.313 6.313T5 9.5t1.313 3.188T9.5 14"/>
  </symbol>

  <symbol id="icon-search-all-form"  viewBox="0 0 24 24">
    <path fill="currentColor" d="M5 4v6.025V10v10zv5zm0 18q-.825 0-1.412-.587T3 20V4q0-.825.588-1.412T5 2h7.175q.4 0 .763.15t.637.425l4.85 4.85q.275.275.425.638t.15.762v.7q0 .425-.288.7T18 10.5t-.712-.288T17 9.5V9h-4q-.425 0-.712-.288T12 8V4H5v16h5.5q.425 0 .713.288T11.5 21t-.288.713T10.5 22zm11.5-3q1.05 0 1.775-.725T19 16.5t-.725-1.775T16.5 14t-1.775.725T14 16.5t.725 1.775T16.5 19m5.8 3.3q-.275.275-.7.275t-.7-.275l-2-2q-.525.35-1.137.525T16.5 21q-1.875 0-3.187-1.312T12 16.5t1.313-3.187T16.5 12t3.188 1.313T21 16.5q0 .65-.175 1.263T20.3 18.9l2 2q.275.275.275.7t-.275.7"/>
  </symbol>

  <!-- Material Symbols -->
  <symbol id="icon-update-form" viewBox="0 0 24 24">
    <path fill="currentColor" d="M14 21v-1.65q0-.2.075-.387t.225-.338l5.225-5.2q.225-.225.5-.325t.55-.1q.3 0 .575.113t.5.337l.925.925q.2.225.313.5t.112.55t-.1.563t-.325.512l-5.2 5.2q-.15.15-.337.225T16.65 22H15q-.425 0-.712-.287T14 21m7.5-5.575l-.925-.925zm-6 5.075h.95l3.025-3.05l-.925-.925l-3.05 3.025zM6 22q-.825 0-1.412-.587T4 20V4q0-.825.588-1.412T6 2h7.175q.4 0 .763.15t.637.425l4.85 4.85q.275.275.425.638t.15.762v1.425q0 .425-.288.713T19 11.25t-.712-.288T18 10.25V9h-4q-.425 0-.712-.288T13 8V4H6v16h5q.425 0 .713.288T12 21t-.288.713T11 22zm0-2V4zm13.025-3.025l-.475-.45l.925.925z"/>
  </symbol>

  <symbol id="icon-delete-form" viewBox="0 0 24 24">
    <path d="M6 4v5zv16v-.238V20zm0 18q-.825 0-1.412-.587T4 20V4q0-.825.588-1.412T6 2h8l6 6v4.35q-.475-.175-.975-.262T18 12V9h-5V4H6v16h6.35q.2.575.5 1.075t.7.925zm9.9-.5l-1.4-1.4l2.1-2.1l-2.1-2.1l1.4-1.4l2.1 2.1l2.1-2.1l1.4 1.4l-2.075 2.1l2.075 2.1l-1.4 1.4l-2.1-2.075z"/>
  </symbol>

  <symbol id="icon-delete-all-form" viewBox="0 0 24 24">
    <path fill="currentColor" d="M15 18v-2h4v2zm0-8V8h7v2zm0 4v-2h6v2zM3 8H2V6h4V4.5h4V6h4v2h-1v9q0 .825-.587 1.413T11 19H5q-.825 0-1.412-.587T3 17zm2 0v9h6V8zm0 0v9z"/>
  </symbol>


  <!-- sidebar -->
  <symbol id="icon-home-sb" viewBox="0 0 512 512">
    <path fill="currentColor" d="M469.666 216.45L271.078 33.749a34 34 0 0 0-47.062.98L41.373 217.373L32 226.745V496h176V328h96v168h176V225.958ZM248.038 56.771c.282 0 .108.061-.013.18c-.125-.119-.269-.18.013-.18M448 464H336V328a32 32 0 0 0-32-32h-96a32 32 0 0 0-32 32v136H64V240L248.038 57.356c.013-.012.014-.023.024-.035L448 240Z"/>
  </symbol>

  <symbol id="icon-save-sb" viewBox="0 0 16 16"> 
    <g fill="currentColor"> 
      <path d="M13 9v3h3v1h-3v3h-1v-3H9v-1h3V9z"/> 
      <path fill-rule="evenodd" d="m10.57 1.14l3.28 3.3l.15.36V8h-1V6H9.5L9 5.5V2H3v12h5v1H2.5l-.5-.5v-13l.5-.5h7.72zM10 5h3l-3-3z" clip-rule="evenodd"/>
    </g> 
  </symbol>

  <symbol id="icon-search-sb" viewBox="0 0 2048 2048">
    <path fill="currentColor" d="M1344 0q97 0 187 25t168 71t142 110t111 143t71 168t25 187q0 97-25 187t-71 168t-110 142t-143 111t-168 71t-187 25q-125 0-239-42t-211-121l-785 784q-19 19-45 19t-45-19t-19-45t19-45l784-785q-79-96-121-210t-42-240q0-97 25-187t71-168t110-142T989 96t168-71t187-25m0 1280q119 0 224-45t183-124t123-183t46-224q0-119-45-224t-124-183t-183-123t-224-46q-119 0-224 45T937 297T814 480t-46 224q0 119 45 224t124 183t183 123t224 46"/>
  </symbol>

  <symbol id="icon-update-sb" viewBox="0 0 2048 2048">
    <path fill="currentColor" d="M1848 896q42 0 78 15t64 41t42 63t16 79q0 39-15 76t-43 65l-717 717l-377 94l94-377l717-716q29-29 65-43t76-14m51 249q21-21 21-51q0-31-20-50t-52-20q-14 0-27 4t-23 15l-692 692l-34 135l135-34zM768 1536h128l-128 128H293l-165-165V256q0-27 10-50t27-40t41-28t50-10h1280q27 0 50 10t40 27t28 41t10 50v512l-128 128V256h-128v640H384V256H256v1189l91 91h37v-512h896v128l-128 128v-128H512v384h128v-256h128zM512 768h768V256H512z"/>
  </symbol>

  <symbol id="icon-delete-sb" viewBox="0 0 16 16">
    <g fill="currentColor">
      <!-- X bajada 0.3 -->
      <path d="M9.8 11.1 L14.2 15.5 M14.2 11.1 L9.8 15.5" stroke="currentColor" stroke-width="1" stroke-linecap="round"/>
      <path fill-rule="evenodd" d="m10.57 1.14l3.28 3.3l.15.36V8h-1V6H9.5L9 5.5V2H3v12h5v1H2.5l-.5-.5v-13l.5-.5h7.72zM10 5h3l-3-3z" clip-rule="evenodd"/>
    </g>
  </symbol>
</svg>


